<?xml version="1.0"?>
<svg xmlns="http://www.w3.org/2000/svg" viewBox="0 0 64 64" width="512px" height="512px"><g><g id="consumer"><path d="M56,18h-.21A10.792,10.792,0,0,0,57,13a11,11,0,0,0-21.67-2.67A8.488,8.488,0,0,0,21,16.5a3.507,3.507,0,0,0,.4,1.53A6.01,6.01,0,0,0,17.54,20H13a7.008,7.008,0,0,0-7,7v2a3.009,3.009,0,0,0,3,3H8a2.006,2.006,0,0,0-2,2v1a2.006,2.006,0,0,0,2,2H9.08A7.007,7.007,0,0,0,12,41.74V44.5L8.67,47H3a1,1,0,0,0-1,1v7a7.008,7.008,0,0,0,7,7H23a7.008,7.008,0,0,0,7-7V48a1,1,0,0,0-1-1H23.33L20,44.5V41.74A7.007,7.007,0,0,0,22.92,37H24a2.006,2.006,0,0,0,2-2V34a2.006,2.006,0,0,0-2-2H23V30.72a7.576,7.576,0,0,0,.89-.72H56a6,6,0,0,0,0-12ZM9,35H8V34H9ZM21.97,56.24,23.78,49H28v6a5,5,0,0,1-5,5H9a5,5,0,0,1-5-5V49H8.22l1.81,7.24A1,1,0,0,0,11,57H21A1,1,0,0,0,21.97,56.24ZM20.22,55H11.78l-1.24-4.97,4.96,2.84a1.044,1.044,0,0,0,1,0l4.96-2.84Zm.96-7.11L16,50.85l-5.18-2.96L13.6,45.8A1.014,1.014,0,0,0,14,45V42.71a7.042,7.042,0,0,0,4,0V45a1.014,1.014,0,0,0,.4.8ZM21,36a5,5,0,0,1-10,0V30.62l3.09-1.55a2.347,2.347,0,0,1-.03.6,3.954,3.954,0,0,1-.6,1.06,1.589,1.589,0,0,0-.34,1.74,1.669,1.669,0,0,0,1.37.81,5.32,5.32,0,0,0,4.25-1.61,4.585,4.585,0,0,0,.82-1.25l1.44.36Zm3-2v1H23V34Zm0-9a4.963,4.963,0,0,1-1.98,3.97l-2.88-.72a.994.994,0,0,0-.77.12,1.02,1.02,0,0,0-.45.64,2.8,2.8,0,0,1-.65,1.31,3.346,3.346,0,0,1-1.75.93,5.153,5.153,0,0,0,.42-.91,6.39,6.39,0,0,0,.05-2.49A.993.993,0,0,0,15,27H14a1,1,0,0,0-.45.11l-4,2A.977.977,0,0,0,9,30a1,1,0,0,1-1-1V27a5,5,0,0,1,5-5H24Zm32,3H25.31A6.983,6.983,0,0,0,26,25V21a1,1,0,0,0-1-1H23a1.014,1.014,0,0,0,.82-.42,1.035,1.035,0,0,0,.12-.92,6.909,6.909,0,0,0-.47-.99A3.068,3.068,0,0,1,23,16.5a6.492,6.492,0,0,1,12.14-3.21,1,1,0,0,0,1.87-.48A9,9,0,1,1,53.19,18.4a1,1,0,0,0,.8,1.6H56a4,4,0,0,1,0,8Z" data-original="#000000" class="active-path" data-old_color="#000000" fill="#F06430"/><rect x="32" y="52" width="2" height="2" data-original="#000000" class="active-path" data-old_color="#000000" fill="#F06430"/><path d="M53,49a4,4,0,1,0,4,4A4,4,0,0,0,53,49Zm0,6a2,2,0,1,1,2-2A2,2,0,0,1,53,55Z" data-original="#000000" class="active-path" data-old_color="#000000" fill="#F06430"/><path d="M61.24,50.03l-.67-.17.36-.59a1,1,0,0,0-.15-1.22l-2.83-2.83a1.014,1.014,0,0,0-1.22-.15l-.59.36-.17-.67A1,1,0,0,0,55,44H54V32H52V44H51a1,1,0,0,0-.97.76l-.17.67-.59-.36a1.012,1.012,0,0,0-1.22.15l-2.83,2.83a1,1,0,0,0-.15,1.22l.36.59-.67.17A1,1,0,0,0,44,51v1H36v2h8v1a1,1,0,0,0,.76.97l.67.17-.36.59a1,1,0,0,0,.15,1.22l2.83,2.83a1.012,1.012,0,0,0,1.22.15l.59-.36.17.67A1,1,0,0,0,51,62h4a1,1,0,0,0,.97-.76l.17-.67.59.36a1.014,1.014,0,0,0,1.22-.15l2.83-2.83a1,1,0,0,0,.15-1.22l-.36-.59.67-.17A1,1,0,0,0,62,55V51A1,1,0,0,0,61.24,50.03ZM60,54.22l-1.22.3a1.007,1.007,0,0,0-.68.59.989.989,0,0,0,.07.9l.64,1.08-1.72,1.72-1.08-.65a1.019,1.019,0,0,0-.9-.06,1.007,1.007,0,0,0-.59.68L54.22,60H51.78l-.3-1.22a1.007,1.007,0,0,0-.59-.68,1.019,1.019,0,0,0-.9.06l-1.08.65-1.72-1.72.64-1.08a.989.989,0,0,0,.07-.9,1.007,1.007,0,0,0-.68-.59L46,54.22V51.78l1.22-.3a1.007,1.007,0,0,0,.68-.59.989.989,0,0,0-.07-.9l-.64-1.08,1.72-1.72,1.08.64a.989.989,0,0,0,.9.07,1.007,1.007,0,0,0,.59-.68l.3-1.22h2.44l.3,1.22a1.007,1.007,0,0,0,.59.68.989.989,0,0,0,.9-.07l1.08-.64,1.72,1.72-.64,1.08a.989.989,0,0,0-.07.9,1.007,1.007,0,0,0,.68.59l1.22.3Z" data-original="#000000" class="active-path" data-old_color="#000000" fill="#F06430"/><path d="M51,13h2a7.008,7.008,0,0,0-7-7V8A5.006,5.006,0,0,1,51,13Z" data-original="#000000" class="active-path" data-old_color="#000000" fill="#F06430"/><path d="M29.5,14V12a4.5,4.5,0,0,0-4.47,3.976l1.987.232A2.5,2.5,0,0,1,29.5,14Z" data-original="#000000" class="active-path" data-old_color="#000000" fill="#F06430"/></g></g> </svg>
