<svg id="Capa_1" enable-background="new 0 0 512 512" height="512" viewBox="0 0 512 512" width="512" xmlns="http://www.w3.org/2000/svg"><g><path d="m35.173 193.668h155.176v-145.349h-190.349v190.349h35.173z"/><path d="m225.522 283.672c16.57 0 30.002-13.432 30.002-30.002s-13.432-30.002-30.002-30.002h-160.349v60.004z"/><path d="m115.345 403.677c0 33.139 26.865 60.004 60.004 60.004s60.004-26.865 60.004-60.004z"/><path d="m451.996 313.673c2.904 0 5.776.144 8.61.414l-21.642-115.421h29.976v-30h-35.601l-5.625-30.002h-117.452v30h46.243l28.464 175.011h-109.85l-17.433-39.391c-9.304 5.933-20.335 9.388-32.164 9.388h-145.031c-6.501 13.647-10.146 28.907-10.146 45.003v15h296.795c12.384-34.921 45.744-60.002 84.856-60.002z"/><ellipse cx="451.996" cy="403.677" rx="60.004" ry="60.004" transform="matrix(.122 -.993 .993 .122 -3.883 802.964)"/></g></svg>