<?xml version="1.0" encoding="iso-8859-1"?>
<!-- Generator: Adobe Illustrator 19.0.0, SVG Export Plug-In . SVG Version: 6.00 Build 0)  -->
<svg version="1.1" id="Capa_1" xmlns="http://www.w3.org/2000/svg" xmlns:xlink="http://www.w3.org/1999/xlink" x="0px" y="0px"
	 viewBox="0 0 464 464" style="enable-background:new 0 0 464 464;" xml:space="preserve">
<circle style="fill:#F8C09C;" cx="232" cy="232" r="232"/>
<path style="fill:#F6F6E7;" d="M392,232l-60-36c-61.554-36.923-138.446-36.923-200,0l-60,36l60,36
	c61.554,36.923,138.446,36.923,200,0L392,232z"/>
<circle style="fill:#2BB3CE;" cx="232" cy="232" r="64"/>
<path style="fill:#1F8B94;" d="M254.544,172.16c24.266,25.627,23.163,66.074-2.464,90.34c-17.808,16.863-43.696,22.046-66.624,13.34
	c24.201,25.725,64.674,26.961,90.4,2.76s26.961-64.674,2.76-90.4C271.922,181.085,263.688,175.598,254.544,172.16z"/>
<g>
	<path style="fill:#E3472C;" d="M232,256c-13.255,0-24-10.745-24-24c0-13.255,10.745-24,24-24c13.255,0,24,10.745,24,24
		C256,245.255,245.255,256,232,256z M232,224c-4.418,0-8,3.582-8,8s3.582,8,8,8s8-3.582,8-8S236.418,224,232,224z"/>
	<path style="fill:#E3472C;" d="M232,192c-4.418,0-8-3.582-8-8v-40c0-4.418,3.582-8,8-8s8,3.582,8,8v40
		C240,188.418,236.418,192,232,192z"/>
	<path style="fill:#E3472C;" d="M232,328c-4.418,0-8-3.582-8-8v-40c0-4.418,3.582-8,8-8s8,3.582,8,8v40
		C240,324.418,236.418,328,232,328z"/>
	<path style="fill:#E3472C;" d="M320,240h-40c-4.418,0-8-3.582-8-8s3.582-8,8-8h40c4.418,0,8,3.582,8,8S324.418,240,320,240z"/>
	<path style="fill:#E3472C;" d="M184,240h-40c-4.418,0-8-3.582-8-8s3.582-8,8-8h40c4.418,0,8,3.582,8,8S188.418,240,184,240z"/>
</g>
<path style="fill:#9A615B;" d="M424,192.544c-17.265,0.027-34.116-5.281-48.248-15.2l-31.24-21.864
	c-67.551-47.299-157.473-47.299-225.024,0l-31.2,21.864C74.145,187.27,57.279,192.58,40,192.544c-4.418,0-8-3.582-8-8s3.582-8,8-8
	c13.985,0.02,27.635-4.283,39.08-12.32l31.2-21.864c73.065-51.142,170.311-51.142,243.376,0l31.2,21.864
	c11.463,8.05,25.137,12.353,39.144,12.32c4.418,0,8,3.582,8,8S428.418,192.544,424,192.544L424,192.544z"/>
<g>
</g>
<g>
</g>
<g>
</g>
<g>
</g>
<g>
</g>
<g>
</g>
<g>
</g>
<g>
</g>
<g>
</g>
<g>
</g>
<g>
</g>
<g>
</g>
<g>
</g>
<g>
</g>
<g>
</g>
</svg>
