<svg id="Layer_1" height="512" viewBox="0 0 128 128" width="512" xmlns="http://www.w3.org/2000/svg" data-name="Layer 1"><circle cx="61.164" cy="66.837" fill="#ff637b" r="48.163"/><circle cx="61.164" cy="66.837" fill="#ebebf0" r="36.756"/><circle cx="61.164" cy="66.837" fill="#ff637b" r="25.23"/><circle cx="61.164" cy="66.837" fill="#ebebf0" r="9.276"/><path d="m70.44 66.837a9.275 9.275 0 0 0 -9.276-9.275v18.551a9.276 9.276 0 0 0 9.276-9.276z" fill="#d2d2d7"/><path d="m85.882 42.12a1.749 1.749 0 0 0 -2.475 0l-23.48 23.48a1.749 1.749 0 1 0 2.473 2.474l23.481-23.48a1.75 1.75 0 0 0 .001-2.474z" fill="#3e5959"/><path d="m94.441 48.029-11.803-2.666-2.665-11.803 20.56-20.56 2.665 11.803 11.803 2.665z" fill="#9bdc05"/><g fill="#5a2b41"><path d="m26.389 35.264a1.745 1.745 0 0 0 1.263-.539c.178-.185.356-.368.536-.549a1.75 1.75 0 1 0 -2.488-2.463c-.194.2-.385.391-.575.59a1.751 1.751 0 0 0 1.263 2.961z"/><path d="m104.831 46.418a1.751 1.751 0 0 0 -.928 2.3 46.418 46.418 0 1 1 -81.227-7.824 1.75 1.75 0 0 0 -2.9-1.959 49.9 49.9 0 1 0 87.351 8.416 1.75 1.75 0 0 0 -2.296-.933z"/><path d="m61.163 105.343a1.75 1.75 0 0 0 0-3.5 35.006 35.006 0 1 1 10.224-68.495 1.75 1.75 0 0 0 1.021-3.348 38.51 38.51 0 1 0 -11.245 75.343z"/><path d="m68.629 104.584a1.8 1.8 0 0 0 .356-.036q.957-.2 1.895-.443a1.749 1.749 0 1 0 -.88-3.386c-.568.147-1.144.281-1.723.4a1.75 1.75 0 0 0 .353 3.464z"/><path d="m116.681 26.982a1.748 1.748 0 0 0 -1.3-1.22l-10.725-2.423-2.423-10.725a1.749 1.749 0 0 0 -2.944-.851l-12.335 12.337a49.929 49.929 0 0 0 -54.74 2.07 1.75 1.75 0 1 0 2.032 2.849 46.432 46.432 0 0 1 50.154-2.361l-5.665 5.665a1.752 1.752 0 0 0 -.469 1.623l2.452 10.862-1.758 1.758a26.9 26.9 0 1 0 5.784 7.151 1.75 1.75 0 1 0 -3.056 1.7 23.547 23.547 0 1 1 -5.209-6.375l-16.554 16.558a1.75 1.75 0 1 0 2.475 2.474l5.171-5.174a7.521 7.521 0 1 1 -6.408-3.591 1.75 1.75 0 0 0 0-3.5 11.05 11.05 0 1 0 8.927 4.572l10.145-10.142h.006v-.005l2.946-2.946 8.149 1.84a34.988 34.988 0 0 1 -13.627 48.566 1.75 1.75 0 0 0 .83 3.291 1.724 1.724 0 0 0 .826-.209 38.5 38.5 0 0 0 16.129-51.361 1.726 1.726 0 0 0 .183-.149l20.56-20.56a1.751 1.751 0 0 0 .444-1.724zm-22.8 19.126-.985-.222-.038-.009-8.758-1.977-2.209-9.783 17.632-17.635 1.967 8.706a1.751 1.751 0 0 0 1.322 1.322l8.706 1.967z"/></g></svg>